<?xml version="1.0" encoding="utf-8"?>
<svg viewBox="0 0 36 45" xmlns="http://www.w3.org/2000/svg">
  <defs>
    <linearGradient id="gradient-1" gradientUnits="userSpaceOnUse" x1="13.861" y1="19.25" x2="13.861" y2="26.854" gradientTransform="matrix(0.165701, 0, 0.000001, 0.166975, 0.000166, 0.000018)">
      <stop offset="0" style="stop-color: rgba(161, 181, 95, 1)"/>
      <stop offset="1" style="stop-color: rgba(104, 119, 55, 1)"/>
    </linearGradient>
    <linearGradient id="gradient-2" gradientUnits="userSpaceOnUse" x1="13.861" y1="19.25" x2="13.861" y2="26.854" gradientTransform="matrix(0.165701, 0, 0.000001, 0.166976, 0.000176, 0.000017)">
      <stop offset="0" style="stop-color: rgba(161, 181, 95, 1)"/>
      <stop offset="1" style="stop-color: rgba(104, 119, 55, 1)"/>
    </linearGradient>
  </defs>
  <path d="M 16.146 28.733 L 16.794 30.683 L 19.442 30.69 L 19.957 28.63 C 19.957 28.63 22.562 28.306 22.459 28.306 C 22.356 28.306 27.47 29.052 29.272 29.785 C 31.074 30.518 33.258 31.457 34.837 35.559 C 35.535 38.613 35.53 40.591 35.508 44.494 L 0.384 44.494 L 0.693 37.901 C 0.693 37.901 1.091 34.05 2.753 32.647 C 4.415 31.244 4.839 30.896 6.771 30.061 C 8.703 29.226 13.055 28.527 13.055 28.527 C 13.055 28.527 16.043 28.733 16.146 28.733 Z" style="fill: none; stroke: black;"/>
  <path d="M 13.483 28.532 L 14.067 26.018" style="fill: none; stroke: black;"/>
  <path d="M 18.106 30.975 L 18.091 33.37 C 14.317 34.349 10.88 35.082 10.793 36.959 C 10.706 38.836 10.71 44.323 10.71 44.323" style="fill: none; stroke: black;"/>
  <ellipse transform="matrix(0.024603, 0.999698, -0.999698, 0.0246, 17.3639, 36.140587)" cx="2.297" cy="3.849" rx="0.63" ry="0.635" style="stroke-opacity: 0; stroke: url(#gradient-1);"/>
  <ellipse transform="matrix(0.024605, 0.999698, -0.999697, 0.0246, 17.321933, 39.137425)" cx="2.297" cy="3.849" rx="0.63" ry="0.635" style="stroke-opacity: 0; stroke: url(#gradient-2);"/>
  <path d="M 27.787 41.34 L 27.787 44.424" style="fill: none; stroke: black;"/>
  <path d="M 7.798 41.34 L 7.78 44.576" style="fill: none; stroke: black;"/>
  <path d="M 10.453 15.869 C 9.753 16.031 9.407 15.584 9.417 15.205 L 9.364 13.133 C 9.539 12.608 9.634 12.402 10.559 12.442 L 25.515 12.416 C 25.515 12.416 26.215 12.511 26.338 13.053 C 26.461 13.595 26.365 15.125 26.365 15.125 C 26.365 15.125 26.153 15.631 25.674 15.816" style="fill: none; stroke: black;"/>
  <path d="M 10.187 12.336 C 10.184 12.272 10.247 9.777 10.24 9.813 C 10.24 9.813 8.465 9.267 7.238 7.953" style="fill: none; stroke: black;"/>
  <path d="M 7.452 8.139 C 6.724 7.586 6.277 6.808 6.1 6.123 C 5.906 5.373 5.953 5.15 6.185 4.016 C 6.753 1.242 8.707 0.687 9.607 0.51 C 10.782 0.279 13.213 0.891 14.156 2.942 C 14.505 1.837 16.394 0.328 17.997 0.422 C 19.455 0.422 20.608 0.746 22.164 2.992 C 22.735 1.821 22.63 0.771 25.143 0.276 C 27.336 0.262 28.649 0.95 29.393 1.79 C 30.137 2.63 30.217 3.623 30.217 3.623 C 30.588 7.366 28.016 9.146 26.763 9.547 L 25.701 9.627 C 25.701 9.627 25.73 10.724 25.807 12.23" style="fill: none; stroke: black;"/>
  <path d="M 25.231 15.889 C 25.267 15.919 25.606 19.839 24.552 22.247 C 23.292 25.128 20.37 26.366 20.37 26.366 C 19.35 26.962 17.405 27.065 16.235 26.66 C 14.953 26.216 13.128 25.393 11.56 22.764 C 10.004 20.082 10.402 15.84 10.44 15.883 L 25.891 15.883" style="fill: none; stroke: black;"/>
  <path d="M 22.523 28.16 L 21.93 25.505" style="fill: none; stroke: black;"/>
  <path d="M 13.539 35.657" style="fill: none; stroke: black;"/>
</svg>