<?xml version="1.0" encoding="iso-8859-1"?>
<!-- Generator: Adobe Illustrator 16.0.0, SVG Export Plug-In . SVG Version: 6.00 Build 0)  -->
<!DOCTYPE svg PUBLIC "-//W3C//DTD SVG 1.1//EN" "http://www.w3.org/Graphics/SVG/1.1/DTD/svg11.dtd">
<svg xmlns="http://www.w3.org/2000/svg" xmlns:xlink="http://www.w3.org/1999/xlink" version="1.1" id="Capa_1" x="0px" y="0px" width="512px" height="512px" viewBox="0 0 28.082 28.082" style="enable-background:new 0 0 28.082 28.082;" xml:space="preserve">
<g>
	<g>
		<path d="M13.619,16.34l-6.411,9.957c2.676,1.494,5.828,2.072,8.885,1.623l-1.931-9.041L13.619,16.34z" fill="#b2c1be"/>
		<path d="M1.249,8.229C0.43,10.039,0,12.024,0,14.027c0,4.49,2.114,8.65,5.7,11.297l7.061-10.963L1.249,8.229z" fill="#b2c1be"/>
		<path d="M13.145,4.802V0.014C8.599,0.301,4.488,2.771,2.093,6.648l11.053,5.887L13.145,4.802z" fill="#b2c1be"/>
		<path d="M14.938,0.014v12.628v1.292l2.908,13.615c5.982-1.684,10.236-7.231,10.236-13.521C28.083,6.585,22.264,0.479,14.938,0.014    z M18.736,25.99l-2.604-12.184v-1.165L16.132,1.351c6.125,1.006,10.757,6.346,10.757,12.678    C26.889,19.33,23.594,24.08,18.736,25.99z" fill="#b2c1be"/>
	</g>
</g>
<g>
</g>
<g>
</g>
<g>
</g>
<g>
</g>
<g>
</g>
<g>
</g>
<g>
</g>
<g>
</g>
<g>
</g>
<g>
</g>
<g>
</g>
<g>
</g>
<g>
</g>
<g>
</g>
<g>
</g>
</svg>
